<svg xmlns="http://www.w3.org/2000/svg" xmlns:xlink="http://www.w3.org/1999/xlink" viewBox="0 0 1708.41 514.47"><defs><style>.cls-1{isolation:isolate;}.cls-2{fill:#454444;}.cls-3{fill:#e94e1b;}.cls-4,.cls-5{opacity:0.8;mix-blend-mode:multiply;}.cls-4{fill:url(#linear-gradient);}.cls-5{fill:url(#linear-gradient-2);}</style><linearGradient id="linear-gradient" x1="584.1" y1="226.75" x2="614.17" y2="215.61" gradientUnits="userSpaceOnUse"><stop offset="0" stop-color="#fff"/><stop offset="1"/></linearGradient><linearGradient id="linear-gradient-2" x1="677.39" y1="6148.41" x2="707.46" y2="6137.27" gradientTransform="translate(897.16 6388.62) rotate(180)" xlink:href="#linear-gradient"/></defs><title>Jasne tło</title><g class="cls-1"><g id="Layer_1" data-name="Layer 1"><path class="cls-2" d="M323.08,203.22H335.3l-.16,8.26c3.86-5.88,10.31-10.33,17.21-10.33a15,15,0,0,1,14.87,12.24,20.66,20.66,0,0,1,18.84-12.23,15.37,15.37,0,0,1,13.15,6.68c3.72,5.62,3.43,12.73,3.43,19.68v59.87H390.09V227.68c0-3.82.41-8.63-1.14-12.17a7.28,7.28,0,0,0-6.67-4.69c-5.1,0-8.38,5.23-9.78,7.58A22.86,22.86,0,0,0,369,231.65v55.58H356.59V228.79c0-3.47.26-7.52-.83-11-1.42-4.62-4.79-6.48-7.79-6.48-3.37,0-7.12,2.2-10.17,7.84-2.38,4.42-2.66,8.1-2.66,12.05v56.06H323.08Z"/><path class="cls-2" d="M435.42,164.95a3.33,3.33,0,0,1-1,2.64,2.89,2.89,0,0,0-.71,2.12v72.1l42.08-39.07a41.18,41.18,0,0,0,9.85,1h4.76L455,237l41.29,50.34H495c-8.81,0-15.86.64-15.86.64l-34.3-42.88-11.12,10.32v31.92H420.33V164.95Z"/><path class="cls-2" d="M707.48,212.25h10.13l-.13,6.84c3.2-4.87,8.54-8.56,14.25-8.56a12.45,12.45,0,0,1,12.32,10.14,17.11,17.11,0,0,1,15.61-10.13,12.73,12.73,0,0,1,10.9,5.53c3.08,4.65,2.84,10.54,2.84,16.31V282H763V232.51c0-3.17.34-7.15-.94-10.08a6,6,0,0,0-5.53-3.89c-4.23,0-6.95,4.33-8.1,6.28a18.94,18.94,0,0,0-2.93,11v46H735.24V233.43c0-2.87.21-6.23-.69-9.15-1.18-3.82-4-5.37-6.45-5.37-2.79,0-5.9,1.82-8.42,6.5a19.18,19.18,0,0,0-2.2,10v46.44h-10Z"/><path class="cls-2" d="M822,212.12V273h16.31v8.81H793.18V273h17.76v-52H794.1v-8.95Zm2.63-22.43a7.9,7.9,0,1,1-7.9-7.83A7.87,7.87,0,0,1,824.63,189.69Z"/><path class="cls-2" d="M916,232.78c-1.21-.91-.38-2.34-1-3.52-.4-.82-6.12-9.12-18-9.12-12.8,0-23,9.91-23,25.78,0,16.28,10.34,27.65,23.92,27.65a24.74,24.74,0,0,0,18.45-8.42l6.32,7.37A34.89,34.89,0,0,1,897,283.56c-19.7,0-34.31-15.51-34.31-36.51s14.53-36.25,35-36.25c11.2,0,20.56,4.86,26,12.9Z"/><path class="cls-2" d="M941,180.55h12.63a1.42,1.42,0,0,1,.08.46,2.4,2.4,0,0,1-1,1.63,1.79,1.79,0,0,0-.55,1.46v40.39c5.11-7.76,13.7-13.95,23.15-13.95a20,20,0,0,1,18.54,12.29c2.48,5.6,2.51,11.35,2.51,16.78v42.23H985.62v-42c0-4.92,0-10.9-3.8-15.4a12.15,12.15,0,0,0-9.44-4.41c-7.37,0-14.06,6.16-16.71,9.69-2.9,3.86-3.46,7.27-3.46,12v40.13H941Z"/><path class="cls-2" d="M1045.26,210.67c10.81,0,19.65,4,24.22,11.57,3.21,5.36,3.42,10.75,3.42,16.46v43.15h-10.39v-7.63a39.62,39.62,0,0,1-25,9.34c-14.55,0-23.43-9.49-23.43-19.71,0-7.72,5-15.86,16-19.9,8.86-3.26,19.84-3.15,30.1-3.15h2.24v-2.5c0-3.69.05-8.17-2.27-12-2-3.23-6.06-6.7-14.33-6.7-6.43,0-14.28,1.79-20,7.77l-5.39-7C1026.91,213.69,1035.87,210.67,1045.26,210.67Zm15,38.56c-7.24,0-16.56-.46-22.89,1.05-8.73,2.08-12.28,7.77-12.28,12.83,0,6.23,5.4,12.06,14.63,12.06s15.78-5.53,18.31-8.22c4.7-5,4.73-9.51,4.73-13.12v-4.6Z"/><path class="cls-2" d="M1126.5,180.55V273H1147v8.81h-52.23V273h20.66V189.36h-19.73v-8.81Z"/><path class="cls-2" d="M1181.67,180.55a2.75,2.75,0,0,1-.86,2.19,2.39,2.39,0,0,0-.59,1.76v59.73l34.86-32.37a34.12,34.12,0,0,0,8.16.79h3.95l-29.34,27.63L1232.06,282H1231c-7.3,0-13.14.53-13.14.53L1189.43,247l-9.21,8.55V282h-11.05V180.55Z"/><path class="cls-2" d="M1255.92,212.25v38.81c0,4.67,0,10.12,2.46,15a14.82,14.82,0,0,0,13.31,8.52c6.71,0,12.9-4.5,16.09-10.33,2.33-4.25,2.74-8.39,2.74-13.75V212.25h11.05v63.28a20.62,20.62,0,0,0,.79,6.31h-11.58a29.29,29.29,0,0,1-.26-5.39l.13-5.26a25.08,25.08,0,0,1-21.51,12.37,23.45,23.45,0,0,1-21.65-14.21c-2.72-6.12-2.78-12.23-2.76-18.29l.13-38.81Z"/><path class="cls-2" d="M1373.33,232.78c-1.21-.91-.38-2.34-1-3.52-.4-.82-6.12-9.12-18-9.12-12.8,0-23,9.91-23,25.78,0,16.28,10.34,27.65,23.92,27.65a24.74,24.74,0,0,0,18.45-8.42l6.31,7.37a34.89,34.89,0,0,1-25.68,11.05c-19.7,0-34.31-15.51-34.31-36.51s14.54-36.25,35-36.25c11.2,0,20.56,4.86,26,12.9Z"/><path class="cls-2" d="M1426.38,210.67c10.81,0,19.65,4,24.22,11.57,3.21,5.36,3.42,10.75,3.42,16.46v43.15h-10.39v-7.63a39.62,39.62,0,0,1-25,9.34c-14.55,0-23.43-9.49-23.43-19.71,0-7.72,5-15.86,16-19.9,8.86-3.26,19.84-3.15,30.1-3.15h2.24v-2.5c0-3.69.05-8.17-2.27-12-2-3.23-6.06-6.7-14.33-6.7-6.44,0-14.28,1.79-20,7.77l-5.39-7C1408,213.69,1417,210.67,1426.38,210.67Zm15,38.56c-7.24,0-16.56-.46-22.89,1.05-8.73,2.08-12.28,7.77-12.28,12.83,0,6.23,5.4,12.06,14.63,12.06s15.78-5.53,18.31-8.22c4.7-5,4.73-9.51,4.73-13.12v-4.6Z"/><path class="cls-2" d="M1520.12,212.12V277c0,6-.16,11.72-3.14,17.55-4.72,9.25-14.46,13.92-24.4,13.92a26.88,26.88,0,0,1-21.27-9.76l7.1-9.47c.95.78.71,1.77,1.33,2.8a16.69,16.69,0,0,0,13.54,6.94,15.17,15.17,0,0,0,14-8.79c1.71-3.7,1.78-7.36,1.78-11.08V221.2h-25.92v-9.08Zm2.5-22.43a7.9,7.9,0,1,1-7.9-7.83A7.87,7.87,0,0,1,1522.62,189.69Z"/><path class="cls-3" d="M1029.72,307.56a2,2,0,0,1-.11,1.33,2,2,0,0,0-.06,1.22l4.47,22.17,5.28-21.83h3l6.5,21.77c2.65-17.48,3-20.9,2.84-24.61h4.47q-2,15.47-5.11,30.76h-4.53l-5.69-19.91-5.4,19.91H1031l-6.21-30.82Z"/><path class="cls-3" d="M1086.93,317.77a23.06,23.06,0,0,1,.21,5.87h-21.81c.37,9.2,6.32,11.47,10.43,11.47a10.59,10.59,0,0,0,8-3.46l2.67,2.61a14,14,0,0,1-11,4.77c-8.35,0-14.75-5.48-14.75-15.72,0-11.22,6.79-16.47,14.13-16.47C1079.8,306.85,1085.54,309.52,1086.93,317.77Zm-4.55,2.15a8.14,8.14,0,0,0-8-9.36c-3.3,0-8,2.11-8.93,9.36Z"/><path class="cls-3" d="M1100.69,293.57c.11.4-.25.66-.37.75a.79.79,0,0,0-.39.76v17.24a10.92,10.92,0,0,1,9.47-5.46c6,0,12.36,5,12.36,15.72,0,11.15-6.54,16.5-12.85,16.5a10.94,10.94,0,0,1-9.1-4.82l-1.68,4.06H1095V293.57Zm0,21.94c-.7,1.69-.81,3.67-.81,6.45a49.59,49.59,0,0,0,.19,6.07,7.2,7.2,0,0,0,7.52,6.7c3,0,9.08-1.72,9.08-11.13,0-10.85-6.12-12.58-9-12.58A7.47,7.47,0,0,0,1100.74,315.51Z"/><path class="cls-3" d="M1183.22,293.57h5.17a1.63,1.63,0,0,1-.37,1,1.38,1.38,0,0,0-.27.91l.06,40a11.45,11.45,0,0,0,.29,2.84h-4.82a7.19,7.19,0,0,1-.29-2.26v-2.67a10.91,10.91,0,0,1-9.49,5.62c-5.94,0-12.22-5-12.22-16.3,0-11.74,7.07-15.9,12.93-15.9a9.57,9.57,0,0,1,9,5.29ZM1166,321.91c0,10.12,5.17,12.82,8.65,12.82a8.09,8.09,0,0,0,7.57-5.83,18.09,18.09,0,0,0,.64-5.59,25.78,25.78,0,0,0-.52-6.57,8,8,0,0,0-7.88-6C1170.9,310.75,1166,313.16,1166,321.91Z"/><path class="cls-3" d="M1221.46,317.77a23.06,23.06,0,0,1,.21,5.87h-21.81c.37,9.2,6.32,11.47,10.43,11.47a10.59,10.59,0,0,0,8-3.46l2.67,2.61a14,14,0,0,1-11,4.77c-8.35,0-14.75-5.48-14.75-15.72,0-11.22,6.79-16.47,14.13-16.47C1214.32,306.85,1220.06,309.52,1221.46,317.77Zm-4.55,2.15a8.14,8.14,0,0,0-8-9.36c-3.3,0-8,2.11-8.93,9.36Z"/><path class="cls-3" d="M1234,307.56c.12.55-.21.91-.21,1.32a1.08,1.08,0,0,0,.1.42l8.88,22.46,4.93-11.44a59.28,59.28,0,0,0,4.18-12.77h4.35a75.58,75.58,0,0,1-4.59,13.47l-7.49,17.53h-3.77l-12.19-31Z"/><path class="cls-3" d="M1288.72,317.77a23.06,23.06,0,0,1,.21,5.87h-21.81c.37,9.2,6.32,11.47,10.43,11.47a10.59,10.59,0,0,0,8-3.46l2.67,2.61a14,14,0,0,1-11,4.77c-8.35,0-14.75-5.48-14.75-15.72,0-11.22,6.79-16.47,14.13-16.47C1281.59,306.85,1287.32,309.52,1288.72,317.77Zm-4.55,2.15a8.14,8.14,0,0,0-8-9.36c-3.3,0-8,2.11-8.93,9.36Z"/><path class="cls-3" d="M1312.05,293.63v40.81h9.06v3.89h-23v-3.89h9.11V297.52h-8.71v-3.89Z"/><path class="cls-3" d="M1343.53,339.14c-7.74,0-14.4-6.59-14.4-15.94s6.71-16.28,14.54-16.28c7,0,13.68,5.57,13.68,16.18C1357.36,333.28,1350.81,339.14,1343.53,339.14Zm-9.29-16.36c0,7.58,4.43,12.18,9.32,12.18,4.49,0,8.91-3.92,8.91-11.66,0-8.44-4.7-12.26-9.14-12.26C1338.65,311,1334.25,315.24,1334.25,322.78Z"/><path class="cls-3" d="M1369,307.62v4.7a11.43,11.43,0,0,1,9.71-5.4c6,0,12.47,4.85,12.47,15.69,0,11.27-6.61,16.53-12.89,16.53a11.11,11.11,0,0,1-9.22-4.88v15.27h-4.93l-.06-41.91Zm.8,7.88a15.47,15.47,0,0,0-.81,6.06c0,4.45,0,7,.88,9.06a7.47,7.47,0,0,0,7,4.24c2.88,0,9.24-1.55,9.24-11.24,0-11.15-6.51-12.56-9.21-12.56A7.63,7.63,0,0,0,1369.79,315.5Z"/><path class="cls-3" d="M1423.24,317.77a23.06,23.06,0,0,1,.21,5.87h-21.81c.37,9.2,6.32,11.47,10.43,11.47a10.59,10.59,0,0,0,8-3.46l2.67,2.61a14,14,0,0,1-11,4.77c-8.35,0-14.75-5.48-14.75-15.72,0-11.22,6.79-16.47,14.13-16.47C1416.11,306.85,1421.84,309.52,1423.24,317.77Zm-4.55,2.15a8.14,8.14,0,0,0-8-9.36c-3.3,0-8,2.11-8.93,9.36Z"/><path class="cls-3" d="M1439,307.62l-.17,5.92a12,12,0,0,1,11.06-6.66,11.32,11.32,0,0,1,8.21,3.36l-2.26,4.64a11.84,11.84,0,0,1-1.14-1.54,6.23,6.23,0,0,0-5.07-2.3c-2.17,0-5.84.76-8.63,5.18a11.73,11.73,0,0,0-2.16,7.2v15H1434V307.62Z"/><path class="cls-3" d="M185.79,245.44V221.52L269,188.39v23l-61.47,22.27L269,255.57v23Z"/><polygon class="cls-3" points="618.08 221.52 534.89 188.39 534.89 211.4 618.08 241.53 618.08 221.52"/><polygon class="cls-3" points="534.89 211.4 534.89 211.4 596.36 233.66 534.89 255.57 534.89 278.57 618.08 245.44 618.08 241.53 534.89 211.4"/><polygon class="cls-4" points="534.89 211.4 534.89 211.4 596.36 233.66 534.89 255.57 534.89 278.57 618.08 245.44 618.08 241.53 534.89 211.4"/><polygon class="cls-3" points="185.79 245.44 268.98 278.57 268.98 255.57 185.79 225.43 185.79 245.44"/><polygon class="cls-3" points="268.98 255.57 268.98 255.57 207.51 233.3 268.98 211.4 268.98 188.39 185.79 221.52 185.79 225.43 268.98 255.57"/><polygon class="cls-5" points="268.98 255.57 268.98 255.57 207.51 233.3 268.98 211.4 268.98 188.39 185.79 221.52 185.79 225.43 268.98 255.57"/></g></g></svg>