<svg xmlns="http://www.w3.org/2000/svg" xmlns:xlink="http://www.w3.org/1999/xlink" viewBox="0 0 1708.41 514.47"><defs><style>.cls-1{isolation:isolate;}.cls-2{fill:#fff;}.cls-3{fill:#e94e1b;}.cls-4,.cls-5{opacity:0.8;mix-blend-mode:multiply;}.cls-4{fill:url(#linear-gradient);}.cls-5{fill:url(#linear-gradient-2);}</style><linearGradient id="linear-gradient" x1="572.1" y1="226.75" x2="602.17" y2="215.61" gradientUnits="userSpaceOnUse"><stop offset="0" stop-color="#fff"/><stop offset="1"/></linearGradient><linearGradient id="linear-gradient-2" x1="654.39" y1="4390.24" x2="684.46" y2="4379.1" gradientTransform="translate(897.16 4630.45) rotate(180)" xlink:href="#linear-gradient"/></defs><title>Ciemne tło</title><g class="cls-1"><g id="Layer_1" data-name="Layer 1"><path class="cls-2" d="M320.85,203.22h12.23l-.16,8.26c3.86-5.88,10.31-10.33,17.21-10.33A15,15,0,0,1,365,213.39a20.66,20.66,0,0,1,18.84-12.23A15.37,15.37,0,0,1,397,207.84c3.72,5.62,3.43,12.73,3.43,19.68v59.87H387.87V227.68c0-3.82.41-8.63-1.14-12.17a7.28,7.28,0,0,0-6.67-4.69c-5.1,0-8.38,5.23-9.78,7.58a22.86,22.86,0,0,0-3.53,13.26v55.58H354.36V228.79c0-3.47.26-7.52-.83-11-1.42-4.62-4.79-6.48-7.79-6.48-3.37,0-7.12,2.2-10.17,7.84-2.38,4.42-2.66,8.1-2.66,12.05v56.06H320.85Z"/><path class="cls-2" d="M433.19,164.95a3.33,3.33,0,0,1-1,2.64,2.89,2.89,0,0,0-.71,2.12v72.1l42.08-39.07a41.18,41.18,0,0,0,9.85,1h4.76L452.73,237,494,287.39h-1.29c-8.81,0-15.86.64-15.86.64l-34.3-42.88-11.12,10.32v31.92H418.11V164.95Z"/><path class="cls-2" d="M684.48,212.25h10.13l-.13,6.84c3.2-4.87,8.54-8.56,14.25-8.56a12.45,12.45,0,0,1,12.32,10.14,17.11,17.11,0,0,1,15.61-10.13,12.73,12.73,0,0,1,10.9,5.53c3.08,4.65,2.84,10.54,2.84,16.31V282H740V232.51c0-3.17.34-7.15-.94-10.08a6,6,0,0,0-5.53-3.89c-4.23,0-6.95,4.33-8.1,6.28a18.94,18.94,0,0,0-2.93,11v46H712.24V233.43c0-2.87.21-6.23-.69-9.15-1.18-3.82-4-5.37-6.45-5.37-2.79,0-5.9,1.82-8.42,6.5a19.18,19.18,0,0,0-2.2,10v46.44h-10Z"/><path class="cls-2" d="M799,212.12V273H815.3v8.81H770.18V273h17.76v-52H771.1v-8.95Zm2.63-22.43a7.9,7.9,0,1,1-7.9-7.83A7.87,7.87,0,0,1,801.62,189.69Z"/><path class="cls-2" d="M893,232.78c-1.21-.91-.38-2.34-1-3.52-.4-.82-6.12-9.12-18-9.12-12.8,0-23,9.91-23,25.78,0,16.28,10.34,27.65,23.92,27.65a24.74,24.74,0,0,0,18.45-8.42l6.32,7.37A34.89,34.89,0,0,1,874,283.56c-19.7,0-34.31-15.51-34.31-36.51s14.53-36.25,35-36.25c11.2,0,20.56,4.86,26,12.9Z"/><path class="cls-2" d="M918,180.55h12.63a1.42,1.42,0,0,1,.08.46,2.4,2.4,0,0,1-1,1.63,1.79,1.79,0,0,0-.55,1.46v40.39c5.11-7.76,13.7-13.95,23.15-13.95a20,20,0,0,1,18.54,12.29c2.48,5.6,2.51,11.35,2.51,16.78v42.23H962.62v-42c0-4.92,0-10.9-3.8-15.4a12.15,12.15,0,0,0-9.44-4.41c-7.37,0-14.06,6.16-16.71,9.69-2.9,3.86-3.46,7.27-3.46,12v40.13H918Z"/><path class="cls-2" d="M1022.26,210.67c10.81,0,19.65,4,24.22,11.57,3.21,5.36,3.42,10.75,3.42,16.46v43.15h-10.39v-7.63a39.62,39.62,0,0,1-25,9.34c-14.55,0-23.43-9.49-23.43-19.71,0-7.72,5-15.86,16-19.9,8.86-3.26,19.84-3.15,30.1-3.15h2.24v-2.5c0-3.69.05-8.17-2.27-12-2-3.23-6.06-6.7-14.33-6.7-6.43,0-14.28,1.79-20,7.77l-5.39-7C1003.91,213.69,1012.86,210.67,1022.26,210.67Zm15,38.56c-7.24,0-16.56-.46-22.89,1.05-8.73,2.08-12.28,7.77-12.28,12.83,0,6.23,5.4,12.06,14.63,12.06s15.78-5.53,18.31-8.22c4.7-5,4.73-9.51,4.73-13.12v-4.6Z"/><path class="cls-2" d="M1103.49,180.55V273H1124v8.81h-52.23V273h20.66V189.36h-19.73v-8.81Z"/><path class="cls-2" d="M1158.67,180.55a2.75,2.75,0,0,1-.86,2.19,2.39,2.39,0,0,0-.59,1.76v59.73l34.86-32.37a34.12,34.12,0,0,0,8.16.79h3.95l-29.34,27.63L1209.06,282H1208c-7.3,0-13.14.53-13.14.53L1166.43,247l-9.21,8.55V282h-11.05V180.55Z"/><path class="cls-2" d="M1232.92,212.25v38.81c0,4.67,0,10.12,2.46,15a14.82,14.82,0,0,0,13.31,8.52c6.71,0,12.9-4.5,16.09-10.33,2.33-4.25,2.74-8.39,2.74-13.75V212.25h11.05v63.28a20.62,20.62,0,0,0,.79,6.31h-11.58a29.29,29.29,0,0,1-.26-5.39l.13-5.26a25.08,25.08,0,0,1-21.51,12.37,23.45,23.45,0,0,1-21.65-14.21c-2.72-6.12-2.78-12.23-2.76-18.29l.13-38.81Z"/><path class="cls-2" d="M1350.32,232.78c-1.21-.91-.38-2.34-1-3.52-.4-.82-6.12-9.12-18-9.12-12.8,0-23,9.91-23,25.78,0,16.28,10.34,27.65,23.92,27.65a24.74,24.74,0,0,0,18.45-8.42l6.31,7.37a34.89,34.89,0,0,1-25.68,11.05c-19.7,0-34.31-15.51-34.31-36.51s14.54-36.25,35-36.25c11.2,0,20.56,4.86,26,12.9Z"/><path class="cls-2" d="M1403.38,210.67c10.81,0,19.65,4,24.22,11.57,3.21,5.36,3.42,10.75,3.42,16.46v43.15h-10.39v-7.63a39.62,39.62,0,0,1-25,9.34c-14.55,0-23.43-9.49-23.43-19.71,0-7.72,5-15.86,16-19.9,8.86-3.26,19.84-3.15,30.1-3.15h2.24v-2.5c0-3.69.05-8.17-2.27-12-2-3.23-6.06-6.7-14.33-6.7-6.44,0-14.28,1.79-20,7.77l-5.39-7C1385,213.69,1394,210.67,1403.38,210.67Zm15,38.56c-7.24,0-16.56-.46-22.89,1.05-8.73,2.08-12.28,7.77-12.28,12.83,0,6.23,5.4,12.06,14.63,12.06s15.78-5.53,18.31-8.22c4.7-5,4.73-9.51,4.73-13.12v-4.6Z"/><path class="cls-2" d="M1497.12,212.12V277c0,6-.16,11.72-3.14,17.55-4.72,9.25-14.46,13.92-24.4,13.92a26.88,26.88,0,0,1-21.27-9.76l7.1-9.47c.95.78.71,1.77,1.33,2.8a16.69,16.69,0,0,0,13.54,6.94,15.17,15.17,0,0,0,14-8.79c1.71-3.7,1.78-7.36,1.78-11.08V221.2h-25.92v-9.08Zm2.5-22.43a7.9,7.9,0,1,1-7.9-7.83A7.87,7.87,0,0,1,1499.62,189.69Z"/><polygon class="cls-3" points="606.07 221.52 522.89 188.39 522.89 211.4 606.07 241.53 606.07 221.52"/><polygon class="cls-3" points="522.89 211.4 522.89 211.4 584.36 233.66 522.89 255.57 522.89 278.57 606.07 245.44 606.07 241.53 522.89 211.4"/><polygon class="cls-4" points="522.89 211.4 522.89 211.4 584.36 233.66 522.89 255.57 522.89 278.57 606.07 245.44 606.07 241.53 522.89 211.4"/><path class="cls-3" d="M208.8,245.44V221.52L292,188.39v23l-61.47,22.27L292,255.57v23Z"/><polygon class="cls-3" points="208.8 245.44 291.98 278.57 291.98 255.57 208.8 225.43 208.8 245.44"/><polygon class="cls-3" points="291.98 255.57 291.98 255.57 230.51 233.3 291.98 211.4 291.98 188.39 208.8 221.52 208.8 225.43 291.98 255.57"/><polygon class="cls-5" points="291.98 255.57 291.98 255.57 230.51 233.3 291.98 211.4 291.98 188.39 208.8 221.52 208.8 225.43 291.98 255.57"/><path class="cls-2" d="M951.29,309.37a2.28,2.28,0,0,1-.12,1.5,2.3,2.3,0,0,0-.07,1.38l5,25,6-24.65h3.34l7.34,24.58c3-19.75,3.35-23.6,3.21-27.8h5q-2.24,17.47-5.77,34.75h-5.11l-6.42-22.49-6.1,22.49h-4.92l-7-34.81Z"/><path class="cls-2" d="M1015.91,320.9a26,26,0,0,1,.24,6.63H991.52c.41,10.39,7.13,13,11.78,13a12,12,0,0,0,9-3.9l3,2.95a15.78,15.78,0,0,1-12.42,5.39c-9.43,0-16.66-6.19-16.66-17.75,0-12.67,7.67-18.6,16-18.6C1007.85,308.56,1014.33,311.58,1015.91,320.9Zm-5.14,2.43c.65-5.63-3.36-10.57-9-10.57-3.72,0-9,2.38-10.09,10.57Z"/><path class="cls-2" d="M1031.45,293.57c.13.46-.29.75-.41.85a.89.89,0,0,0-.44.85v19.47a12.34,12.34,0,0,1,10.69-6.17c6.82,0,14,5.63,14,17.76,0,12.59-7.39,18.64-14.51,18.64a12.36,12.36,0,0,1-10.27-5.45l-1.9,4.59H1025V293.57Zm.06,24.78c-.79,1.91-.91,4.14-.91,7.28a56,56,0,0,0,.21,6.85c.87,6.62,6.12,7.56,8.49,7.56,3.39,0,10.26-1.94,10.26-12.57,0-12.25-6.91-14.2-10.17-14.2A8.43,8.43,0,0,0,1031.5,318.35Z"/><path class="cls-2" d="M1124.65,293.57h5.83a1.84,1.84,0,0,1-.42,1.14,1.55,1.55,0,0,0-.3,1l.07,45.17a12.93,12.93,0,0,0,.33,3.21h-5.44a8.12,8.12,0,0,1-.33-2.56v-3a12.33,12.33,0,0,1-10.72,6.34c-6.71,0-13.8-5.6-13.8-18.41,0-13.26,8-18,14.6-18,4.8,0,8.51,2.4,10.18,6Zm-19.48,32c0,11.43,5.84,14.48,9.77,14.48a9.13,9.13,0,0,0,8.55-6.58,20.43,20.43,0,0,0,.72-6.31,29.12,29.12,0,0,0-.58-7.42,9,9,0,0,0-8.9-6.77C1110.74,313,1105.17,315.7,1105.17,325.58Z"/><path class="cls-2" d="M1167.83,320.9a26,26,0,0,1,.24,6.63h-24.63c.41,10.39,7.13,13,11.78,13a12,12,0,0,0,9-3.9l3,2.95a15.78,15.78,0,0,1-12.42,5.39c-9.43,0-16.66-6.19-16.66-17.75,0-12.67,7.67-18.6,16-18.6C1159.78,308.56,1166.26,311.58,1167.83,320.9Zm-5.14,2.43c.65-5.63-3.36-10.57-9-10.57-3.72,0-9,2.38-10.09,10.57Z"/><path class="cls-2" d="M1182,309.37c.13.62-.24,1-.24,1.49a1.21,1.21,0,0,0,.11.48l10,25.37,5.57-12.91a67,67,0,0,0,4.72-14.42h4.92a85.36,85.36,0,0,1-5.18,15.21l-8.46,19.8h-4.26l-13.77-35Z"/><path class="cls-2" d="M1243.8,320.9a26,26,0,0,1,.24,6.63h-24.63c.41,10.39,7.13,13,11.78,13a12,12,0,0,0,9-3.9l3,2.95a15.78,15.78,0,0,1-12.42,5.39c-9.43,0-16.66-6.19-16.66-17.75,0-12.67,7.67-18.6,16-18.6C1235.74,308.56,1242.22,311.58,1243.8,320.9Zm-5.14,2.43c.65-5.63-3.36-10.57-9-10.57-3.72,0-9,2.38-10.09,10.57Z"/><path class="cls-2" d="M1270.15,293.63v46.09h10.23v4.39h-26v-4.39h10.29V298h-9.83v-4.39Z"/><path class="cls-2" d="M1305.71,345c-8.75,0-16.26-7.44-16.26-18,0-10.72,7.58-18.38,16.43-18.38,7.89,0,15.45,6.29,15.45,18.27C1321.32,338.42,1313.93,345,1305.71,345Zm-10.49-18.47c0,8.56,5,13.75,10.53,13.75,5.07,0,10.07-4.43,10.07-13.17,0-9.53-5.31-13.85-10.32-13.85C1300.19,313.29,1295.22,318,1295.22,326.56Z"/><path class="cls-2" d="M1334.45,309.43v5.31a12.91,12.91,0,0,1,11-6.1c6.83,0,14.08,5.47,14.08,17.72,0,12.73-7.47,18.67-14.56,18.67a12.55,12.55,0,0,1-10.42-5.52v17.24h-5.57l-.07-47.33Zm.91,8.9c-.76,1.8-.92,3.91-.92,6.84,0,5,0,7.89,1,10.23a8.44,8.44,0,0,0,7.93,4.79c3.25,0,10.43-1.75,10.43-12.7,0-12.6-7.35-14.19-10.4-14.19A8.62,8.62,0,0,0,1335.36,318.34Z"/><path class="cls-2" d="M1395.72,320.9a26,26,0,0,1,.24,6.63h-24.63c.41,10.39,7.13,13,11.78,13a12,12,0,0,0,9-3.9l3,2.95a15.79,15.79,0,0,1-12.42,5.39c-9.43,0-16.66-6.19-16.66-17.75,0-12.67,7.67-18.6,16-18.6C1387.67,308.56,1394.15,311.58,1395.72,320.9Zm-5.14,2.43c.65-5.63-3.36-10.57-9-10.57-3.72,0-9,2.38-10.09,10.57Z"/><path class="cls-2" d="M1413.56,309.43l-.2,6.69c2.27-5,7.42-7.53,12.49-7.53a12.78,12.78,0,0,1,9.28,3.79l-2.56,5.24a13.37,13.37,0,0,1-1.29-1.74,7,7,0,0,0-5.73-2.6c-2.45,0-6.6.86-9.75,5.85a13.25,13.25,0,0,0-2.44,8.13v16.91h-5.51V309.43Z"/></g></g></svg>